<svg xmlns="http://www.w3.org/2000/svg" viewBox="0 0 1000 1000"><defs><clipPath id="a"><path d="M500 0c276.142 0 500 223.858 500 500s-223.858 500-500 500S0 776.142 0 500 223.858 0 500 0Z" fill="none"/></clipPath></defs><g clip-path="url(#a)"><path fill="#001524" d="M0 0h1000v1000H0z"/><path d="M322.328 193c44.02 104.58 97.964 221.756 142.621 326.209 32.952 77.099 66.412 154.071 100 230.789-21.501 46.056-41.603 91.985-64.249 143.003L181.997 193.254m636.006 0L632.889 600.379c-23.282-50.254-46.056-98.473-67.557-147.455 31.17-69.72 90.331-190.458 122.265-259.924" fill="#fff"/></g></svg>