<svg xmlns="http://www.w3.org/2000/svg" viewBox="0 0 253.6 92.49"><path d="M4.96 9.95h20.36l7.85 30.49 7.8-30.49h20.35v50.11H48.64V21.84l-9.77 38.21H27.39l-9.75-38.21v38.21H4.96V9.95Zm68.49 25.08c0-8.18 2.28-14.55 6.84-19.11s10.9-6.84 19.04-6.84 14.77 2.24 19.28 6.72c4.51 4.48 6.77 10.75 6.77 18.82 0 5.86-.99 10.66-2.96 14.41s-4.82 6.67-8.54 8.75-8.37 3.13-13.93 3.13-10.33-.9-14.03-2.7c-3.7-1.8-6.71-4.65-9.01-8.54-2.3-3.9-3.45-8.77-3.45-14.63Zm15.48.07c0 5.06.94 8.69 2.82 10.9 1.88 2.21 4.44 3.32 7.67 3.32s5.9-1.08 7.72-3.25c1.82-2.16 2.73-6.05 2.73-11.66 0-4.72-.95-8.16-2.85-10.34-1.9-2.18-4.48-3.26-7.74-3.26s-5.63 1.11-7.52 3.32c-1.89 2.21-2.84 5.87-2.84 10.97Zm47.03-.07c0-8.18 2.28-14.55 6.84-19.11 4.56-4.56 10.9-6.84 19.04-6.84s14.77 2.24 19.28 6.72 6.77 10.75 6.77 18.82c0 5.86-.99 10.66-2.96 14.41s-4.82 6.67-8.54 8.75-8.37 3.13-13.93 3.13-10.33-.9-14.03-2.7c-3.7-1.8-6.71-4.65-9.01-8.54-2.3-3.9-3.45-8.77-3.45-14.63Zm15.48.07c0 5.06.94 8.69 2.82 10.9 1.88 2.21 4.44 3.32 7.67 3.32s5.9-1.08 7.72-3.25c1.82-2.16 2.73-6.05 2.73-11.66 0-4.72-.95-8.16-2.85-10.34-1.9-2.18-4.48-3.26-7.74-3.26s-5.63 1.11-7.52 3.32c-1.89 2.21-2.84 5.87-2.84 10.97Zm74.17 6.8V31.48h23.93v21.36c-4.58 3.12-8.63 5.25-12.15 6.37s-7.7 1.69-12.53 1.69c-5.95 0-10.8-1.01-14.54-3.04-3.75-2.03-6.65-5.05-8.72-9.06-2.06-4.01-3.09-8.61-3.09-13.81 0-5.47 1.13-10.23 3.38-14.27 2.26-4.04 5.56-7.11 9.91-9.21 3.39-1.62 7.96-2.43 13.71-2.43s9.68.5 12.42 1.5c2.75 1 5.02 2.56 6.84 4.67 1.81 2.11 3.17 4.78 4.08 8.02l-14.94 2.67c-.62-1.89-1.66-3.34-3.13-4.34s-3.34-1.5-5.62-1.5c-3.4 0-6.1 1.18-8.12 3.54s-3.02 6.09-3.02 11.19c0 5.42 1.02 9.3 3.06 11.62s4.88 3.49 8.53 3.49c1.73 0 3.38-.25 4.96-.75 1.57-.5 3.37-1.36 5.4-2.56v-4.72h-10.36ZM13.69 83.57H8.42l-.73 2.48H2.94l5.65-15.03h5.07l5.65 15.03h-4.86l-.75-2.48Zm-.97-3.25-1.66-5.4-1.64 5.4h3.3Zm19.83 1.32h-8.37c.08.67.26 1.17.54 1.5.4.47.93.71 1.58.71.41 0 .8-.1 1.17-.31.23-.13.47-.36.73-.69l4.11.38c-.63 1.09-1.39 1.88-2.28 2.35-.89.48-2.16.71-3.82.71-1.44 0-2.58-.2-3.4-.61-.83-.41-1.51-1.05-2.06-1.94-.54-.89-.82-1.93-.82-3.12 0-1.7.54-3.08 1.64-4.13 1.09-1.05 2.6-1.58 4.52-1.58 1.56 0 2.79.24 3.69.71s1.59 1.16 2.06 2.05.71 2.06.71 3.5v.47Zm-4.25-1.99c-.08-.81-.3-1.38-.65-1.73s-.81-.52-1.39-.52c-.66 0-1.19.26-1.59.79-.25.33-.41.82-.48 1.47h4.11Zm6.17-4.49h3.91v1.78c.38-.77.76-1.3 1.16-1.59.4-.29.89-.44 1.48-.44s1.29.19 2.02.57l-1.29 2.97c-.49-.21-.88-.31-1.17-.31-.55 0-.97.23-1.27.68-.43.64-.65 1.83-.65 3.57v3.65h-4.19V75.15Zm9.06 5.48c0-1.66.56-3.03 1.68-4.11 1.12-1.08 2.64-1.62 4.54-1.62 2.18 0 3.83.63 4.94 1.9.9 1.02 1.34 2.27 1.34 3.76 0 1.67-.56 3.05-1.67 4.12s-2.65 1.6-4.61 1.6c-1.75 0-3.17-.44-4.25-1.33-1.33-1.1-1.99-2.54-1.99-4.33Zm4.18-.01c0 .97.2 1.69.59 2.15s.89.7 1.48.7 1.1-.23 1.48-.69c.39-.46.58-1.19.58-2.2 0-.94-.19-1.65-.58-2.11-.39-.46-.87-.69-1.45-.69-.61 0-1.11.23-1.51.7-.4.47-.59 1.18-.59 2.14Zm9.56 2.4 4.14-.39c.17.49.41.84.72 1.06s.72.32 1.23.32c.56 0 .99-.12 1.3-.36.24-.18.36-.4.36-.67 0-.3-.16-.53-.47-.7-.23-.12-.82-.26-1.79-.43-1.45-.25-2.46-.49-3.02-.7-.56-.22-1.04-.58-1.43-1.09-.39-.51-.58-1.1-.58-1.75 0-.72.21-1.33.63-1.85s.99-.91 1.72-1.16c.73-.26 1.71-.38 2.94-.38 1.3 0 2.26.1 2.88.3s1.13.51 1.55.92c.41.42.76.98 1.03 1.69l-3.96.39c-.1-.35-.27-.6-.51-.77-.33-.22-.72-.33-1.19-.33s-.82.08-1.03.25c-.22.17-.32.37-.32.61 0 .27.14.47.41.6.27.14.87.26 1.78.37 1.39.16 2.42.38 3.1.66.68.28 1.19.68 1.55 1.2.36.52.54 1.09.54 1.71s-.19 1.24-.57 1.83c-.38.59-.98 1.07-1.79 1.42-.82.35-1.93.53-3.34.53-1.99 0-3.41-.28-4.25-.85-.84-.57-1.39-1.37-1.63-2.42Zm13.54 7.17V75.17h3.91v1.61c.54-.68 1.04-1.13 1.49-1.37.61-.32 1.28-.48 2.02-.48 1.46 0 2.58.56 3.38 1.67.8 1.11 1.19 2.49 1.19 4.13 0 1.81-.43 3.19-1.3 4.15-.87.95-1.97 1.43-3.29 1.43-.64 0-1.23-.11-1.76-.33s-1-.54-1.42-.97v5.2h-4.21ZM75 80.64c0 .86.18 1.5.54 1.92s.82.63 1.37.63c.49 0 .89-.2 1.22-.6.33-.4.49-1.08.49-2.04 0-.88-.17-1.53-.51-1.94s-.76-.62-1.25-.62c-.53 0-.98.21-1.33.63S75 79.71 75 80.65Zm13.56-1.95-3.99-.42c.15-.7.37-1.25.65-1.65.28-.4.69-.75 1.23-1.04.38-.21.91-.38 1.58-.49s1.39-.17 2.17-.17c1.25 0 2.26.07 3.01.21.76.14 1.39.43 1.9.88.36.31.64.74.84 1.31.21.56.31 1.1.31 1.61v4.81c0 .51.03.91.1 1.21s.21.66.43 1.11h-3.92c-.16-.28-.26-.49-.31-.64s-.1-.38-.14-.69c-.55.53-1.09.9-1.63 1.13-.74.3-1.6.45-2.57.45-1.3 0-2.29-.3-2.96-.9-.67-.6-1.01-1.34-1.01-2.23 0-.83.24-1.51.73-2.04s1.38-.93 2.69-1.19c1.57-.31 2.58-.53 3.05-.66s.96-.29 1.48-.5c0-.51-.11-.87-.32-1.08s-.58-.31-1.12-.31c-.68 0-1.2.11-1.54.33-.27.17-.48.49-.65.96Zm3.62 2.2c-.57.21-1.17.39-1.79.54-.85.23-1.38.45-1.61.67-.23.23-.35.48-.35.77 0 .33.11.6.34.81s.57.31 1.01.31.9-.11 1.3-.34c.4-.23.68-.5.85-.83.17-.32.25-.75.25-1.27v-.67Zm14.66.9 3.97.45c-.22.83-.58 1.54-1.08 2.15-.5.6-1.14 1.07-1.91 1.41s-1.76.5-2.96.5-2.12-.11-2.89-.32c-.77-.21-1.43-.56-1.98-1.04s-.99-1.05-1.3-1.7-.47-1.51-.47-2.58.19-2.05.57-2.8c.28-.55.66-1.04 1.15-1.47s.98-.76 1.5-.97c.81-.33 1.86-.5 3.13-.5 1.78 0 3.13.32 4.07.95.93.64 1.59 1.57 1.96 2.79l-3.93.52c-.12-.46-.35-.82-.67-1.05-.32-.24-.76-.35-1.31-.35-.69 0-1.25.25-1.68.74-.43.49-.64 1.24-.64 2.25 0 .89.21 1.57.64 2.04.42.46.96.7 1.62.7.55 0 1.01-.14 1.38-.42.37-.28.65-.71.84-1.29Zm17.94-.15h-8.37c.08.67.26 1.17.54 1.5.4.47.93.71 1.58.71.41 0 .8-.1 1.17-.31.23-.13.47-.36.73-.69l4.11.38c-.63 1.09-1.39 1.88-2.28 2.35-.89.48-2.16.71-3.83.71-1.44 0-2.58-.2-3.4-.61-.83-.41-1.51-1.05-2.06-1.94-.54-.89-.82-1.93-.82-3.12 0-1.7.54-3.08 1.64-4.13 1.09-1.05 2.6-1.58 4.52-1.58 1.56 0 2.79.24 3.69.71s1.59 1.16 2.06 2.05.71 2.06.71 3.5v.47Zm-4.25-1.99c-.08-.81-.3-1.38-.65-1.73-.35-.35-.81-.52-1.39-.52-.66 0-1.19.26-1.59.79-.25.33-.41.82-.48 1.47h4.11Zm25.22-.91 3.26.73c-.17.6-.33 1.08-.49 1.45s-.38.79-.67 1.28l1.57 1.08c.19.12.44.27.74.44l-2.25 2.58c-.41-.22-.84-.47-1.28-.76-.44-.29-.84-.53-1.18-.74-.72.48-1.45.83-2.17 1.05-1 .3-2.15.45-3.42.45-2 0-3.49-.42-4.47-1.25s-1.47-1.85-1.47-3.04c0-.85.29-1.66.86-2.42s1.51-1.41 2.82-1.93c-.55-.66-.92-1.24-1.13-1.73-.21-.49-.31-.99-.31-1.49 0-1.07.41-1.94 1.22-2.64s2.05-1.04 3.7-1.04 2.93.33 3.72.98 1.19 1.44 1.19 2.36c0 .51-.12 1-.36 1.48-.24.47-.54.85-.88 1.15s-.95.73-1.84 1.31c.73.73 1.49 1.41 2.29 2.04.21-.42.39-.87.54-1.34Zm-6.28 1.02c-.57.4-.96.75-1.14 1.04-.19.29-.28.59-.28.91 0 .5.22.94.65 1.33s.99.58 1.68.58c.75 0 1.58-.29 2.51-.87-.89-.68-2.03-1.68-3.41-2.99Zm1.48-3.65c.54-.29.96-.61 1.25-.96.29-.34.44-.67.44-.98s-.12-.59-.37-.81-.58-.33-1.02-.33-.77.12-1.04.37-.4.54-.4.87c0 .42.38 1.04 1.13 1.85Zm18.59-5.09h6.9c1.36 0 2.46.18 3.3.55.84.37 1.53.9 2.08 1.59s.94 1.49 1.19 2.41.37 1.89.37 2.91c0 1.61-.18 2.85-.55 3.74-.37.89-.87 1.63-1.52 2.23s-1.35 1-2.09 1.19c-1.02.27-1.94.41-2.77.41h-6.9V71.02Zm4.65 3.41v8.21h1.14c.97 0 1.66-.11 2.07-.32.41-.22.73-.59.96-1.13s.35-1.41.35-2.61c0-1.59-.26-2.68-.78-3.27s-1.38-.88-2.58-.88h-1.16Zm23.4 7.21h-8.37c.08.67.26 1.17.54 1.5.4.47.93.71 1.58.71.41 0 .8-.1 1.17-.31.23-.13.47-.36.73-.69l4.11.38c-.63 1.09-1.39 1.88-2.28 2.35-.89.48-2.16.71-3.83.71-1.44 0-2.58-.2-3.4-.61-.83-.41-1.51-1.05-2.06-1.94-.54-.89-.82-1.93-.82-3.12 0-1.7.54-3.08 1.64-4.13 1.09-1.05 2.6-1.58 4.52-1.58 1.56 0 2.79.24 3.69.71s1.59 1.16 2.06 2.05.71 2.06.71 3.5v.47Zm-4.25-1.99c-.08-.81-.3-1.38-.65-1.73-.35-.35-.81-.52-1.39-.52-.66 0-1.19.26-1.59.79-.25.33-.41.82-.48 1.47h4.11Zm10.77-4.49h1.99v3.06h-1.99v7.83h-4.18v-7.83h-1.56v-3.06h1.56v-.49c0-.44.05-.93.14-1.47s.28-.97.54-1.31c.26-.34.63-.61 1.11-.82.48-.21 1.17-.31 2.09-.31.73 0 1.79.09 3.19.26l-.46 2.52c-.5-.08-.9-.12-1.21-.12-.38 0-.65.06-.81.19-.16.13-.28.33-.35.6-.03.15-.05.47-.05.95Zm15.21 6.48h-8.37c.08.67.26 1.17.54 1.5.4.47.93.71 1.58.71.41 0 .8-.1 1.17-.31.23-.13.47-.36.73-.69l4.11.38c-.63 1.09-1.39 1.88-2.28 2.35-.89.48-2.16.71-3.83.71-1.44 0-2.58-.2-3.4-.61-.83-.41-1.51-1.05-2.06-1.94-.54-.89-.82-1.93-.82-3.12 0-1.7.54-3.08 1.64-4.13 1.09-1.05 2.6-1.58 4.52-1.58 1.56 0 2.79.24 3.69.71s1.59 1.16 2.06 2.05.71 2.06.71 3.5v.47Zm-4.24-1.99c-.08-.81-.3-1.38-.65-1.73-.35-.35-.81-.52-1.39-.52-.66 0-1.19.26-1.59.79-.25.33-.41.82-.48 1.47h4.11Zm6.12-4.49h3.89v1.77c.58-.72 1.17-1.24 1.76-1.55s1.32-.47 2.17-.47c1.16 0 2.06.34 2.71 1.03.65.69.98 1.75.98 3.18v6.92h-4.19v-5.99c0-.68-.13-1.17-.38-1.45s-.61-.43-1.07-.43c-.51 0-.92.19-1.23.57s-.47 1.07-.47 2.06v5.23h-4.17V75.14Zm13.23 7.87 4.14-.39c.17.49.41.84.72 1.06s.72.32 1.23.32c.56 0 .99-.12 1.3-.36.24-.18.36-.4.36-.67 0-.3-.16-.53-.47-.7-.23-.12-.82-.26-1.79-.43-1.45-.25-2.46-.49-3.02-.7-.56-.22-1.04-.58-1.43-1.09-.39-.51-.58-1.1-.58-1.75 0-.72.21-1.33.63-1.85s.99-.91 1.72-1.16c.73-.26 1.71-.38 2.94-.38 1.3 0 2.26.1 2.88.3.62.2 1.13.51 1.55.92.41.42.76.98 1.03 1.69l-3.96.39c-.1-.35-.27-.6-.51-.77-.33-.22-.72-.33-1.19-.33s-.82.08-1.03.25c-.22.17-.32.37-.32.61 0 .27.14.47.41.6.27.14.87.26 1.78.37 1.39.16 2.42.38 3.1.66.68.28 1.19.68 1.55 1.2.36.52.54 1.09.54 1.71s-.19 1.24-.57 1.83c-.38.59-.98 1.07-1.79 1.42-.82.35-1.93.53-3.34.53-1.99 0-3.41-.28-4.25-.85-.84-.57-1.39-1.37-1.62-2.42Zm25.61-1.39h-8.37c.08.67.26 1.17.54 1.5.4.47.93.71 1.58.71.41 0 .8-.1 1.17-.31.23-.13.47-.36.73-.69l4.11.38c-.63 1.09-1.39 1.88-2.28 2.35-.89.48-2.16.71-3.82.71-1.44 0-2.58-.2-3.4-.61-.83-.41-1.51-1.05-2.06-1.94-.54-.89-.82-1.93-.82-3.12 0-1.7.54-3.08 1.64-4.13 1.09-1.05 2.6-1.58 4.52-1.58 1.56 0 2.79.24 3.69.71s1.59 1.16 2.06 2.05.71 2.06.71 3.5v.47Zm-4.25-1.99c-.08-.81-.3-1.38-.65-1.73-.35-.35-.82-.52-1.39-.52-.66 0-1.19.26-1.59.79-.25.33-.41.82-.48 1.47h4.11Z" fill="#fff"/></svg>