<svg xmlns="http://www.w3.org/2000/svg" viewBox="0 0 34.393 5.61"><path d="M8 4.624h-.015c-.069.093-.15.183-.241.27a1.661 1.661 0 0 1-.676.385 1.58 1.58 0 0 1-.44.06 1.97 1.97 0 0 1-1.438-.612 2.174 2.174 0 0 1-.438-.683c-.107-.262-.161-.546-.161-.854s.054-.593.161-.854c.106-.262.253-.488.438-.679a1.977 1.977 0 0 1 1.438-.609 1.581 1.581 0 0 1 1.116.438c.091.087.172.176.241.27H8v-.588h.973v4.053H8v-.595Zm0-1.435a1.184 1.184 0 0 0-1.191-1.191 1.211 1.211 0 0 0-1.096.728 1.17 1.17 0 0 0 0 .928 1.21 1.21 0 0 0 .634.637c.145.063.299.095.462.095A1.18 1.18 0 0 0 8 3.189Zm3.242 1.294a.815.815 0 0 0 .479-.087c.123-.072.204-.156.241-.252s.027-.19-.031-.283c-.059-.094-.174-.159-.347-.196l-.854-.126c-.336-.052-.607-.18-.812-.385-.205-.206-.308-.483-.308-.833 0-.191.041-.366.122-.525.082-.159.193-.294.336-.406.143-.112.314-.198.515-.259s.42-.091.658-.091c.308 0 .6.042.875.126s.522.201.742.35l-.435.721c-.135-.107-.312-.191-.528-.252s-.436-.091-.654-.091c-.215 0-.376.034-.483.102-.107.068-.169.145-.186.231a.294.294 0 0 0 .07.245.432.432 0 0 0 .283.144l.868.133c.141.023.281.065.424.126.143.061.271.144.389.248.116.105.211.235.283.389.072.154.108.336.108.546 0 .201-.047.381-.14.539a1.25 1.25 0 0 1-.382.402 1.85 1.85 0 0 1-.56.252 2.52 2.52 0 0 1-.676.088c-.336 0-.65-.042-.941-.126a2.725 2.725 0 0 1-.773-.351l.482-.763c.149.107.33.195.543.263.212.067.442.108.689.122Zm4.074.736h-.477a1.232 1.232 0 0 1-1.121-.728 1.14 1.14 0 0 1-.098-.47V2.033h-.364v-.868h.364V.248h.979v.917h.596v.868h-.596v1.988a.239.239 0 0 0 .238.245h.477v.952Zm1.214-4.054 1.029 2.128h.027l1.127-2.38 1.127 2.38h.028l1.029-2.128h1.057l-2.1 4.305-1.127-2.38h-.028l-1.127 2.38-2.099-4.305h1.057Zm8.801 3.459h-.015c-.069.093-.15.183-.241.27a1.661 1.661 0 0 1-.676.385 1.58 1.58 0 0 1-.44.06 1.97 1.97 0 0 1-1.438-.612 2.174 2.174 0 0 1-.438-.683c-.107-.262-.161-.546-.161-.854s.054-.593.161-.854c.106-.262.253-.488.438-.679a1.977 1.977 0 0 1 1.438-.609 1.581 1.581 0 0 1 1.116.438c.091.086.172.176.241.27h.015v-.588h.973v4.053h-.973v-.595Zm0-1.435a1.184 1.184 0 0 0-1.191-1.191 1.211 1.211 0 0 0-1.096.728 1.17 1.17 0 0 0 0 .928 1.21 1.21 0 0 0 .634.637c.145.063.299.095.462.095a1.18 1.18 0 0 0 1.191-1.197Zm4.259-1.051a1.024 1.024 0 0 0-.518-.133 1.05 1.05 0 0 0-.963.638c-.054.126-.08.262-.08.406v2.17h-.98V1.165h.91v.56a1.52 1.52 0 0 1 .431-.472 1.194 1.194 0 0 1 .683-.207c.187 0 .362.023.528.07.165.047.323.112.473.196l-.483.826Zm4.803 1.051a1.845 1.845 0 0 1-.056.455h-3.228c.084.247.227.443.428.588.2.145.427.218.679.218.229 0 .446-.051.654-.151s.365-.239.473-.416l.756.49a2.19 2.19 0 0 1-.795.703 2.276 2.276 0 0 1-1.088.263c-.304 0-.59-.055-.857-.165a2.14 2.14 0 0 1-1.18-1.13c-.117-.262-.175-.546-.175-.854s.058-.593.175-.854c.116-.262.275-.488.476-.679.201-.191.436-.341.704-.448a2.291 2.291 0 0 1 1.701.007c.263.112.494.264.692.455a2.11 2.11 0 0 1 .641 1.52Zm-1.064-.407a1.169 1.169 0 0 0-.428-.588 1.14 1.14 0 0 0-.686-.217c-.252 0-.479.073-.679.217a1.169 1.169 0 0 0-.428.588h2.22ZM1.142.108c.346.822.77 1.743 1.121 2.564.259.606.522 1.211.786 1.814-.169.362-.327.723-.505 1.124L.039.111m5 0-1.455 3.2c-.183-.395-.362-.774-.531-1.159.245-.548.71-1.497.961-2.043" fill="#fff"/></svg>