<svg xmlns="http://www.w3.org/2000/svg" viewBox="0 0 265.13 103.84"><path d="M50.8 0c3.73 9.12 10.63 17.62 20.26 20.75 7.83 2.55 16.44 1.44 23.92-1.68v.07c-7.81 5.3-17.96 8.1-27.09 4.49-7.56-2.99-13.13-9.47-17.13-16.33-2.79 6.21-6.42 12.32-12.27 16.07-7.4 4.75-16.36 4.46-24.14.73-.47 7.34-.18 14.7 1.12 21.93 3.34 18.62 13.7 36.11 27.51 48.83 1.18 1.08 2.81 2.22 3.87 3.29.1.11.18.15.15.32h-.15C26.61 83.42 10.9 60.44 10.05 34.48c-.03-.98 0-1.97 0-2.94v-2.03c0-.41-.02-.82 0-1.23.11-3.23.51-6.4 1.1-9.57 4.62 2.02 9.5 3.77 14.64 3.58C38.1 21.85 46.78 10.72 50.58 0h.22Z" fill="#00e8fd"/><path d="M46.52 48c-2.12 4.21-1.45 8.16 1.08 11.95.21.31 1.44 1.71 1.46 1.83.06.25-.74 1.53-1.05 1.34-.35-.22-2.94-4.24-3.26-4.85-1.88-3.65-1.14-7.46 1.76-10.27Z" fill="#fff"/><path d="M47.33 77.34c-6.89-7.64 3.1-14.39 7.3-20.04 1.43-1.93 2.11-3.72 1.73-6.18-.1-.62-.57-1.49-.61-1.87-.06-.57.89.89.96 1.01 4.28 7.34-6.09 13.96-9.31 19.53-1.42 2.44-1.4 5.07-.07 7.56Zm3.79 26.5c.42-.75 1.07-1.26 1.5-2.04.96-1.75 1-3.48.67-5.42-.12-.71-.92-2.44-.92-2.73 0-.21.32-.8.54-.76.1.02.65 1.69.71 1.92.96 3.28 1.07 6.86-1.99 9.03h-.51Zm-.14-20.66v6.9c0 .16-.39.77-.52.08-.11-.62-.03-6.25.16-6.63.06-.12.18-.36.35-.34Zm-.22 15.84c-.18.02-.12.02-.15-.11-.1-.57-.21-3.17-.15-3.72.03-.29.21-.47.44-.62l-.15 4.45Z" fill="#fff"/><path d="M53.57 80.49c.37.01 1.18 2.35 1.26 2.76 1.16 6.14-3.91 8.29-5.78 13.15-.69 1.78-.94 3.57-.66 5.47-.26-.25-.4-.63-.5-.96-2.11-7.37 6.48-10.01 5.86-16.88-.07-.78-.94-2.42-.94-2.56 0-.18.68-.99.76-.98Z" fill="#fff"/><path d="M49.22 90.05c-2.83-3.09-1.18-6.79.57-9.9 2.45-4.34 6.75-7.33 3.17-12.7-.19-.29-1.3-1.5-1.32-1.6-.02-.14.89-1.32.97-1.33.59-.05 2.67 2.84 2.95 3.47 3.88 8.74-9.74 13.27-6.34 22.07Z" fill="#fff"/><path d="M51.27 76.72c-.07.36-.84 1.18-1.09 1.5l-.08-9.74c.05-.71.65-1.37 1.17-1.79v10.04Zm-1.31-15-.73-28.36c-.19-1.38-2.38-1.41-2.34-3.94.07-4.73 8.01-4.41 7.68.37-.14 2.05-2.01 2.32-2.18 3.44l-.89 26.05c-.08.99-.82 1.82-1.53 2.45ZM45.94 38.8c-5.21-2.3-11.63-2.33-17.27-2.19-3.02.07-6.13.56-9.12.59-4.62.04-9.88-.66-13.99-2.78 5.99 1.55 12.49 1.67 18.66 1.39s12.15-1.42 18.29-.04c2.36.53 2.48.78 3.43 3.03Zm49.52-4.23c-1.94 1.06-4.38 1.63-6.56 2.02-10.31 1.83-21.44-1.9-31.6 1.41-.26.08-1.86.88-1.93.81-.14-.15 1.09-2.34 1.54-2.58.75-.39 3.95-.82 4.92-.92 5.31-.56 10.55.31 15.84.51 5.94.23 12 .17 17.79-1.24Zm5.91-6.64c-4.46 2.35-10.27 3.05-15.3 3.21-8.33.27-18.13-1.7-26.15.94-.38.12-2.42 1.2-2.52 1.1-.11-.12 1.19-2.77 1.32-2.88.46-.41 3.27-.89 3.99-.98 5.32-.67 10.73.3 16.05.5 7.44.28 15.46.26 22.61-1.9Zm-57.55 5.25c-.06.07-1.46-.71-1.71-.8-7.98-2.97-18.6-.96-27.03-1.24-3.77-.12-7.73-.61-11.35-1.65-1.2-.35-2.74-.82-3.73-1.57 3.65 1.19 7.53 1.62 11.35 1.83 3.39.19 6.98.19 10.38.07 3.95-.13 18.08-1.8 20.74.51.25.22 1.46 2.73 1.35 2.84Zm4.02 11.61c-.13.12-2.92-.89-3.42-1-9.92-2.22-25.06.65-33.43-3.6-.07-.04-.68-.3-.47-.44.09-.06 1.67.53 1.99.61 4.42 1.03 9.36 1.27 13.9 1.07s16.55-1.94 19.95.64c.21.16 1.6 2.61 1.48 2.72Zm42.72-4.89c-.83.61-1.85.93-2.83 1.22-8 2.37-15.85 1.02-24.01 1.7-3.47.29-6.98.78-10.26 1.97-.1-.09 1.06-2.37 1.14-2.47.76-.99 5.68-1.55 7-1.62 4.49-.23 8.9.58 13.37.74 5.24.18 10.54-.17 15.6-1.53ZM67.91 67.75c.38-.06.8-.12 1.25-.17.45-.05.86-.08 1.25-.08s.76.03 1.19.08c.43.05.83.11 1.19.17l3.89 11.21 4.03-11.21c.37-.06.73-.12 1.11-.17s.74-.08 1.11-.08.78.03 1.18.08c.4.05.79.11 1.18.17l.93 21.52c-.29.06-.62.12-.97.18-.36.06-.83.09-1.41.09-.64 0-1.4-.09-2.27-.27l-.38-12.48-3.01 8.23c-.33.06-.66.11-.99.15a7.536 7.536 0 0 1-1.75.02c-.29-.03-.59-.09-.9-.17l-2.69-8.11-.3 12.36c-.77.18-1.5.27-2.19.27-.64 0-1.38-.09-2.22-.27l.79-21.52ZM99.8 78.06c0 .7-.08 1.49-.25 2.35h-5.29v4.28h6.88c.16.84.25 1.61.25 2.29 0 .74-.08 1.54-.25 2.38H89.41V67.69h11.56c.07.44.13.85.16 1.24.04.38.05.74.05 1.08 0 .66-.07 1.46-.22 2.38h-6.71v3.32h5.29c.16.88.25 1.67.25 2.35Zm9.64-10.73c3.45 0 6.07.95 7.86 2.85 1.79 1.9 2.69 4.73 2.69 8.48s-.91 6.62-2.74 8.39-4.53 2.67-8.11 2.67c-.91 0-1.79-.04-2.64-.14-.85-.09-1.69-.2-2.51-.32V67.74a35.923 35.923 0 0 1 2.41-.28c.49-.04 1-.08 1.52-.11s1.03-.04 1.52-.04Zm-.6 17.66c.13.02.27.03.44.03h.52c.71 0 1.38-.09 2.01-.29.63-.19 1.17-.53 1.63-1.01s.82-1.13 1.08-1.96c.26-.82.4-1.88.4-3.16s-.14-2.32-.41-3.17-.63-1.51-1.08-2c-.45-.49-.97-.84-1.58-1.05-.6-.21-1.23-.32-1.89-.32-.37 0-.63 0-.79.01-.16.01-.27.02-.33.02v12.9Zm16.49 4.55c-.68 0-1.49-.09-2.44-.27V67.75c.49-.08.94-.14 1.34-.18.4-.04.76-.06 1.07-.06.33 0 .7.02 1.11.06.41.04.85.1 1.33.18v21.52c-.97.18-1.77.27-2.41.27Zm10.44-10.97c0 4.26 1.63 6.39 4.88 6.39.58 0 1.14-.06 1.66-.18s1.16-.32 1.9-.6c.6 1.45 1 2.93 1.21 4.46-.53.22-1.02.4-1.48.54s-.89.25-1.31.32c-.42.07-.84.12-1.25.15-.41.03-.84.04-1.27.04-1.55 0-2.92-.28-4.1-.83a8.202 8.202 0 0 1-2.96-2.31c-.79-.98-1.39-2.16-1.79-3.53-.4-1.37-.6-2.85-.6-4.46s.21-3.1.63-4.48c.42-1.38 1.03-2.57 1.82-3.57s1.78-1.79 2.94-2.35 2.49-.84 3.97-.84c.88 0 1.71.07 2.49.21s1.66.42 2.63.84a9.73 9.73 0 0 1-.41 2.4c-.24.77-.48 1.45-.74 2.03-.37-.14-.7-.26-1-.36s-.59-.18-.86-.24-.55-.11-.82-.14-.57-.04-.88-.04c-1.48 0-2.63.55-3.44 1.64-.81 1.09-1.22 2.73-1.22 4.9Zm15.45 10.73c-.42.08-.8.14-1.15.18-.35.04-.69.06-1.01.06s-.71-.03-1.14-.08c-.43-.05-.91-.12-1.44-.23l6.14-21.52c.47-.06.92-.11 1.33-.15a11.794 11.794 0 0 1 2.39 0c.41.04.88.09 1.41.15l6.05 21.55c-1.04.18-1.95.27-2.74.27-.37 0-.73-.02-1.1-.06-.37-.04-.76-.1-1.18-.18l-1.04-4.19c-.51.16-1 .28-1.47.36s-.93.12-1.38.12c-.42 0-.85-.03-1.29-.11-.44-.07-.9-.18-1.37-.32l-1.01 4.13Zm3.84-15.92-1.84 7.75c.31.1.6.18.88.24.27.06.56.09.85.09.31 0 .62-.02.92-.08.3-.05.62-.12.95-.23l-1.75-7.78Zm10.66-5.63c.49-.08.94-.14 1.34-.18.4-.04.76-.06 1.07-.06.33 0 .7.02 1.11.06.41.04.85.1 1.33.18v16.88h6.33c.09.5.15.94.18 1.31a13.242 13.242 0 0 1 0 2.08c-.03.37-.09.82-.18 1.34h-11.18V67.75Zm19.75 0c.42-.06 1.06-.15 1.93-.26.87-.11 1.96-.17 3.27-.17.97 0 1.95.1 2.93.3.99.2 1.88.58 2.67 1.13.79.55 1.44 1.33 1.93 2.34.49 1 .74 2.31.74 3.92 0 1.43-.2 2.61-.59 3.56s-.91 1.7-1.56 2.26c-.65.56-1.39.96-2.22 1.21s-1.69.36-2.56.36c-.35 0-.7-.01-1.06-.04-.36-.03-.61-.07-.75-.11v7.02c-.48.1-.9.17-1.29.21-.38.04-.74.06-1.07.06-.64 0-1.43-.09-2.38-.27V67.75Zm4.74 10.19c.09.04.25.07.47.09.22.02.45.03.68.03.79 0 1.42-.25 1.92-.75s.74-1.27.74-2.29c0-.6-.08-1.11-.23-1.52s-.37-.74-.64-1c-.27-.25-.59-.43-.96-.53s-.75-.15-1.15-.15h-.38c-.15 0-.29 0-.44.03v6.09Zm11.43-10.19c.49-.08.94-.14 1.34-.18.4-.04.76-.06 1.07-.06.33 0 .7.02 1.11.06.41.04.85.1 1.33.18v16.88h6.33c.09.5.15.94.18 1.31a13.242 13.242 0 0 1 0 2.08c-.03.37-.09.82-.18 1.34h-11.18V67.75Zm16.82 21.55c-.42.08-.8.14-1.15.18-.35.04-.69.06-1.01.06s-.71-.03-1.14-.08c-.43-.05-.91-.12-1.44-.23l6.14-21.52c.47-.06.92-.11 1.33-.15a11.794 11.794 0 0 1 2.39 0c.41.04.88.09 1.41.15l6.05 21.55c-1.04.18-1.95.27-2.74.27-.37 0-.73-.02-1.1-.06-.37-.04-.76-.1-1.18-.18l-1.04-4.19c-.51.16-1 .28-1.47.36s-.93.12-1.38.12c-.42 0-.85-.03-1.29-.11-.44-.07-.9-.18-1.37-.32l-1.01 4.13Zm3.83-15.92-1.84 7.75c.31.1.6.18.88.24.27.06.56.09.85.09.31 0 .62-.02.92-.08.3-.05.62-.12.95-.23l-1.75-7.78Zm23.51 13.6c0 .74-.08 1.54-.25 2.38h-13.21l-.49-.81 7.56-16.15h-6.71c-.09-.44-.15-.85-.18-1.24a15.205 15.205 0 0 1 0-2.2c.03-.4.09-.82.18-1.27h13.34l.41.87-7.51 16.12h6.6c.16.84.25 1.61.25 2.29Zm6.33 2.32c-.42.08-.8.14-1.15.18-.35.04-.69.06-1.01.06s-.71-.03-1.14-.08c-.43-.05-.91-.12-1.44-.23l6.14-21.52c.47-.06.92-.11 1.33-.15a11.794 11.794 0 0 1 2.39 0c.41.04.88.09 1.41.15l6.05 21.55c-1.04.18-1.95.27-2.74.27-.37 0-.73-.02-1.1-.06-.37-.04-.76-.1-1.18-.18l-1.04-4.19c-.51.16-1 .28-1.47.36s-.93.12-1.38.12c-.42 0-.85-.03-1.29-.11-.44-.07-.9-.18-1.37-.32l-1.01 4.13Zm3.84-15.92-1.84 7.75c.31.1.6.18.88.24.27.06.56.09.85.09.31 0 .62-.02.92-.08.3-.05.62-.12.95-.23l-1.75-7.78ZM106.75 55.37V20.02h15.83c2.16 0 4 .16 5.52.48 1.52.32 2.76.81 3.73 1.47.96.66 1.67 1.5 2.13 2.53.45 1.03.68 2.25.68 3.67v5.79c0 1.58-.21 2.92-.64 4.03-.42 1.11-1.15 2.02-2.19 2.72-1.04.71-2.41 1.22-4.12 1.54-1.71.32-3.84.48-6.38.48h-4.65v12.63h-9.91Zm18.58-24.31c0-1.06-.39-1.98-1.18-2.75l-7.5-7.33v16.93h3.02c1.14 0 2.07-.07 2.81-.22.73-.14 1.31-.38 1.73-.7.42-.32.72-.74.88-1.25.16-.51.24-1.14.24-1.88v-2.8Zm30.21 24.31-.22-1.4c-.09-.55-.25-1.03-.48-1.45-.23-.42-.54-.82-.92-1.21l-8.2-7.91-2.06 11.96h-10.04l7.28-35.35h17.4l7.23 35.35h-10Zm-5.79-34.77-3.95 21.22h7.63l-3.68-21.22Zm38.49 34.77c-.44-.55-.75-1.17-.92-1.88-.17-.71-.26-1.57-.26-2.6v-2.51c0-1.54-.75-2.97-2.24-4.29l-6.49-6.12v17.41h-9.86V20.02h13.41c3.1 0 5.63.14 7.58.41 1.96.27 3.49.72 4.6 1.33 1.11.61 1.87 1.42 2.28 2.44.41 1.01.61 2.26.61 3.74v3.52c0 1.13-.2 2.16-.59 3.11-.39.95-.94 1.78-1.62 2.51-.69.72-1.48 1.29-2.39 1.71-.91.42-1.89.64-2.94.68 2.75.26 4.69.88 5.83 1.88 1.14 1 1.71 2.27 1.71 3.81v5.74c0 1.61.39 3.1 1.18 4.48h-9.91Zm-1.18-24.79c0-.8-.39-1.59-1.18-2.36l-7.54-7.23v15.96h3.07c1.14 0 2.08-.07 2.81-.22s1.31-.38 1.73-.7c.42-.32.72-.75.88-1.28.16-.53.24-1.17.24-1.9v-2.27Zm34.28 24.79c-.44-.55-.75-1.17-.92-1.88-.17-.71-.26-1.57-.26-2.6v-2.51c0-1.54-.75-2.97-2.24-4.29l-6.49-6.12v17.41h-9.86V20.02h13.41c3.1 0 5.63.14 7.58.41 1.96.27 3.49.72 4.6 1.33 1.11.61 1.87 1.42 2.28 2.44.41 1.01.61 2.26.61 3.74v3.52c0 1.13-.2 2.16-.59 3.11-.39.95-.94 1.78-1.62 2.51-.69.72-1.48 1.29-2.39 1.71-.91.42-1.89.64-2.94.68 2.75.26 4.69.88 5.83 1.88 1.14 1 1.71 2.27 1.71 3.81v5.74c0 1.61.39 3.1 1.18 4.48h-9.91Zm-1.19-24.79c0-.8-.39-1.59-1.18-2.36l-7.54-7.23v15.96h3.07c1.14 0 2.08-.07 2.81-.22s1.31-.38 1.73-.7c.42-.32.72-.75.88-1.28.16-.53.24-1.17.24-1.9v-2.27Zm34.55 24.79-.22-1.4c-.09-.55-.25-1.03-.48-1.45-.23-.42-.54-.82-.92-1.21l-8.2-7.91-2.06 11.96h-10.04l7.28-35.35h17.4l7.23 35.35h-10Zm-5.79-34.77-3.95 21.22h7.63l-3.68-21.22Z" fill="#fff"/></svg>