<svg xmlns="http://www.w3.org/2000/svg" style="width:100%;height:auto;max-width:1200px" clip-rule="evenodd" fill-rule="evenodd" stroke-linejoin="round" stroke-miterlimit="1.414" viewBox="-21.913 -5.204 189.91 31.221"><g fill="#941125"><path d="M36.877 10.345C36.877 4.631 44.586 0 54.083 0c9.499 0 17.208 4.632 17.208 10.345 0 5.712-7.71 10.342-17.208 10.342-9.497 0-17.206-4.63-17.206-10.343zm4.705-.127c0-4.396 5.599-7.96 12.501-7.96 6.904 0 12.518 3.564 12.518 7.96 0 4.399-5.614 7.962-12.518 7.962-6.903 0-12.501-3.563-12.501-7.962zm32.523.127C74.105 4.631 81.814 0 91.311 0c9.512 0 17.208 4.632 17.208 10.345 0 5.712-7.696 10.342-17.208 10.342-9.498 0-17.207-4.63-17.207-10.343zm4.705-.127c0-4.396 5.599-7.96 12.502-7.96 6.918 0 12.517 3.564 12.517 7.96 0 4.399-5.599 7.962-12.517 7.962-6.904 0-12.502-3.563-12.502-7.962z"/><path d="m19.347 20.436 11.447-14.92v14.897h3.517V.615l-4.28.013-12.736 17.316-13-17.316L0 .615v19.798h3.532V5.517l11.447 14.919h4.192m126.9-5.343c-3.665 3.073-11.536 5.956-16.841 5.706-9.513 0-17.208-4.632-17.208-10.345 0-5.713 7.695-10.344 17.207-10.344 7.827 0 14.554 3.395 16.636 7.698l-4.573.952c-1.173-3.315-5.936-6.268-11.99-6.268-6.903 0-12.56 4.009-12.56 8.025 0 4.018 5.54 7.899 12.443 7.899 6.552 0 12.957-4.752 12.957-4.752l.03-.89h-10.685v-2.507h14.598l-.015 4.826z" fill-rule="nonzero"/></g></svg>